<svg xmlns="http://www.w3.org/2000/svg" viewBox="0 0 32 32" width="32" height="32">
  <defs>
    <linearGradient id="cg" x1="0%" y1="0%" x2="100%" y2="100%">
      <stop offset="0%" style="stop-color:#E8734A" />
      <stop offset="100%" style="stop-color:#F09D7A" />
    </linearGradient>
    <linearGradient id="pg" x1="0%" y1="0%" x2="100%" y2="100%">
      <stop offset="0%" style="stop-color:#6BBF8A" />
      <stop offset="100%" style="stop-color:#34D399" />
    </linearGradient>
  </defs>
  <path d="M9 21 C4 21 2 17 2 14 C2 11 4 8 7 8 C7 5 10 2 15 2 C20 2 23 5 23 8 C26 8 28 11 28 14 C28 17 26 21 22 21 Z" fill="url(#cg)" />
  <ellipse cx="15" cy="17" rx="4" ry="3" fill="url(#pg)" />
  <ellipse cx="11" cy="13" rx="2.2" ry="2.5" fill="url(#pg)" />
  <ellipse cx="15" cy="11" rx="2.2" ry="2.5" fill="url(#pg)" />
  <ellipse cx="19" cy="13" rx="2.2" ry="2.5" fill="url(#pg)" />
</svg>